<svg width="25" height="24" viewBox="0 0 25 24" fill="#1E88E5" xmlns="http://www.w3.org/2000/svg">
<mask id="path-1-inside-1_3342_24576" fill="#1E88E5">
<path d="M21.3359 21.4053H3.16406V22H21.3359V21.4053Z"/>
</mask>
<path d="M21.3359 21.4053H3.16406V22H21.3359V21.4053Z" fill="#1E88E5"/>
<path d="M3.16406 21.4053V20.4053H2.16406V21.4053H3.16406ZM21.3359 21.4053H22.3359V20.4053H21.3359V21.4053ZM21.3359 22V23H22.3359V22H21.3359ZM3.16406 22H2.16406V23H3.16406V22ZM3.16406 22.4053H21.3359V20.4053H3.16406V22.4053ZM20.3359 21.4053V22H22.3359V21.4053H20.3359ZM21.3359 21H3.16406V23H21.3359V21ZM4.16406 22V21.4053H2.16406V22H4.16406Z" fill="#1E88E5" mask="url(#path-1-inside-1_3342_24576)"/>
<path d="M17.9189 13.2559H19.5107V20.1711H17.9189V13.2559Z" fill="#1E88E5" stroke="#1E88E5"/>
<path d="M14.9268 13.2559H16.1845V20.1711H14.9268V13.2559Z" fill="#1E88E5" stroke="#1E88E5"/>
<path d="M11.3916 13.2559H13.1926V20.1711H11.3916V13.2559Z" fill="#1E88E5" stroke="#1E88E5"/>
<path d="M8.19043 13.2559H9.65739V20.1711H8.19043V13.2559Z" fill="#1E88E5" stroke="#1E88E5"/>
<path d="M4.98926 13.2559H6.45622V20.1711H4.98926V13.2559Z" fill="#1E88E5" stroke="#1E88E5"/>
<mask id="path-8-inside-2_3342_24576" fill="#1E88E5">
<path d="M18.7441 2V12.022H17.9585V2.96182C17.9585 2.75991 17.7933 2.59471 17.5914 2.59471H6.90858C6.70667 2.59471 6.54147 2.75991 6.54147 2.96182V12.022H5.75586V2H18.7441Z"/>
</mask>
<path d="M18.7441 2V12.022H17.9585V2.96182C17.9585 2.75991 17.7933 2.59471 17.5914 2.59471H6.90858C6.70667 2.59471 6.54147 2.75991 6.54147 2.96182V12.022H5.75586V2H18.7441Z" fill="#1E88E5"/>
<path d="M18.7441 2H19.7441V1H18.7441V2ZM18.7441 12.022V13.022H19.7441V12.022H18.7441ZM17.9585 12.022H16.9585V13.022H17.9585V12.022ZM6.54147 12.022V13.022H7.54147V12.022H6.54147ZM5.75586 12.022H4.75586V13.022H5.75586V12.022ZM5.75586 2V1H4.75586V2H5.75586ZM17.7441 2V12.022H19.7441V2H17.7441ZM18.7441 11.022H17.9585V13.022H18.7441V11.022ZM18.9585 12.022V2.96182H16.9585V12.022H18.9585ZM18.9585 2.96182C18.9585 2.20763 18.3456 1.59471 17.5914 1.59471V3.59471C17.241 3.59471 16.9585 3.3122 16.9585 2.96182H18.9585ZM17.5914 1.59471H6.90858V3.59471H17.5914V1.59471ZM6.90858 1.59471C6.15438 1.59471 5.54147 2.20763 5.54147 2.96182H7.54147C7.54147 3.3122 7.25895 3.59471 6.90858 3.59471V1.59471ZM5.54147 2.96182V12.022H7.54147V2.96182H5.54147ZM6.54147 11.022H5.75586V13.022H6.54147V11.022ZM6.75586 12.022V2H4.75586V12.022H6.75586ZM5.75586 3H18.7441V1H5.75586V3Z" fill="#1E88E5" mask="url(#path-8-inside-2_3342_24576)"/>
<path d="M7.77539 3.8291H11.3826V11.5222H7.77539V3.8291Z" fill="#1E88E5" stroke="#1E88E5"/>
<path d="M15.1825 10.0949C15.1825 10.5704 15.565 10.962 16.0496 10.962H16.7244V11.5222H13.1172V3.8291H16.7244V9.22778H16.0496C15.5679 9.22778 15.1825 9.61316 15.1825 10.0949Z" fill="#1E88E5" stroke="#1E88E5"/>
</svg>
