<?xml version="1.0" encoding="UTF-8" standalone="no" ?>
<!DOCTYPE svg PUBLIC "-//W3C//DTD SVG 1.1//EN" "http://www.w3.org/Graphics/SVG/1.1/DTD/svg11.dtd">
<svg xmlns="http://www.w3.org/2000/svg" xmlns:xlink="http://www.w3.org/1999/xlink" version="1.1" width="1200" height="900" viewBox="0 0 1200 900" xml:space="preserve">
<desc>Created with Fabric.js 5.2.4</desc>
<defs>
</defs>
<g transform="matrix(1 0 0 1 600 450)" id="a70a7746-16dd-4e83-8d44-3aa7a7ff9f78"  >
<rect style="stroke: none; stroke-width: 1; stroke-dasharray: none; stroke-linecap: butt; stroke-dashoffset: 0; stroke-linejoin: miter; stroke-miterlimit: 4; fill: rgb(255,255,255); fill-rule: nonzero; opacity: 1; visibility: hidden;" vector-effect="non-scaling-stroke"  x="-600" y="-450" rx="0" ry="0" width="1200" height="900" />
</g>
<g transform="matrix(Infinity NaN NaN Infinity 0 0)" id="f2f45d71-fdd7-451f-bfd8-f7bd9fc214a0"  >
</g>
<g transform="matrix(NaN NaN NaN NaN 0 0)"  >
<g style=""   >
</g>
</g>
<g transform="matrix(0.44 0 0 -0.42 600 383.54)"  >
<path style="stroke: none; stroke-width: 1; stroke-dasharray: none; stroke-linecap: butt; stroke-dashoffset: 0; stroke-linejoin: miter; stroke-miterlimit: 4; fill: rgb(20,94,252); fill-rule: nonzero; opacity: 1;" vector-effect="non-scaling-stroke"  transform=" translate(-1250, -958.2)" d="M 1180 1401 C 1087 1371 1034 1323 994 1236 C 970 1184 968 1169 973 1106 C 980 1019 1011 927 1079 791 C 1139 672 1237 510 1249 510 C 1276 510 1456 846 1501 980 C 1527 1059 1532 1086 1528 1140 C 1517 1290 1414 1395 1267 1405 C 1233 1408 1194 1406 1180 1401 z M 1355 1346 C 1416 1318 1442 1290 1470 1227 C 1531 1091 1458 936 1315 895 C 1225 868 1140 892 1073 962 C 980 1059 988 1227 1090 1312 C 1164 1375 1267 1388 1355 1346 z" stroke-linecap="round" />
</g>
<g transform="matrix(0.44 0 0 -0.42 599.79 312.08)"  >
<path style="stroke: none; stroke-width: 1; stroke-dasharray: none; stroke-linecap: butt; stroke-dashoffset: 0; stroke-linejoin: miter; stroke-miterlimit: 4; fill: rgb(20,94,252); fill-rule: nonzero; opacity: 1;" vector-effect="non-scaling-stroke"  transform=" translate(-1249.53, -1129.12)" d="M 1189 1317 C 1122 1292 1083 1253 1062 1191 C 1014 1051 1130 914 1280 934 C 1369 946 1436 1016 1447 1109 C 1455 1180 1416 1260 1356 1295 C 1303 1326 1237 1335 1189 1317 z M 1290 1245 C 1309 1225 1320 1221 1342 1225 C 1368 1231 1370 1229 1370 1201 C 1370 1181 1377 1166 1390 1158 C 1401 1151 1410 1137 1410 1128 C 1410 1117 1402 1110 1390 1110 C 1373 1110 1370 1103 1370 1068 C 1370 1019 1364 1008 1333 991 C 1285 966 1160 981 1138 1014 C 1134 1020 1130 1044 1130 1068 C 1130 1103 1127 1110 1110 1110 C 1097 1110 1090 1116 1091 1128 C 1092 1148 1228 1269 1251 1269 C 1259 1270 1277 1259 1290 1245 z" stroke-linecap="round" />
</g>
<g transform="matrix(0.44 0 0 -0.42 600 313.8)"  >
<path style="stroke: none; stroke-width: 1; stroke-dasharray: none; stroke-linecap: butt; stroke-dashoffset: 0; stroke-linejoin: miter; stroke-miterlimit: 4; fill: rgb(20,94,252); fill-rule: nonzero; opacity: 1;" vector-effect="non-scaling-stroke"  transform=" translate(-1250, -1125.07)" d="M 1207 1184 C 1171 1150 1169 1147 1172 1092 C 1175 1039 1177 1035 1202 1032 C 1225 1029 1229 1033 1232 1057 C 1234 1074 1241 1085 1250 1085 C 1259 1085 1266 1074 1268 1057 C 1271 1033 1275 1029 1298 1032 C 1323 1035 1325 1039 1328 1092 C 1331 1147 1329 1150 1293 1184 C 1272 1204 1253 1219 1250 1219 C 1247 1219 1228 1204 1207 1184 z" stroke-linecap="round" />
</g>
<g transform="matrix(0.44 0 0 -0.42 526.57 596.34)"  >
<path style="stroke: none; stroke-width: 1; stroke-dasharray: none; stroke-linecap: butt; stroke-dashoffset: 0; stroke-linejoin: miter; stroke-miterlimit: 4; fill: rgb(20,94,252); fill-rule: nonzero; opacity: 1;" vector-effect="non-scaling-stroke"  transform=" translate(-1084.69, -460.25)" d="M 800 710 C 800 705 843 666 895 624 C 947 582 990 546 990 543 C 990 541 983 526 975 510 L 959 480 L 836 480 C 721 480 712 479 707 460 C 702 441 707 440 805 440 C 867 440 911 436 915 429 C 919 424 894 371 861 313 C 827 256 800 206 800 204 C 800 202 808 200 819 200 C 832 200 861 242 926 355 C 975 440 1020 510 1026 510 C 1032 510 1125 440 1231 355 C 1379 237 1432 200 1453 200 C 1478 200 1465 214 1350 307 C 1243 393 1220 417 1224 434 C 1232 464 1212 480 1170 480 C 1142 480 1121 489 1092 513 C 1069 530 1051 550 1051 556 C 1050 563 1061 587 1074 610 C 1097 650 1099 680 1079 680 C 1074 680 1061 662 1050 640 C 1038 617 1023 597 1015 594 C 1006 590 966 615 918 654 C 842 715 800 735 800 710 z" stroke-linecap="round" />
</g>
<g transform="matrix(0.44 0 0 -0.42 477.63 500.82)"  >
<path style="stroke: none; stroke-width: 1; stroke-dasharray: none; stroke-linecap: butt; stroke-dashoffset: 0; stroke-linejoin: miter; stroke-miterlimit: 4; fill: rgb(20,94,252); fill-rule: nonzero; opacity: 1;" vector-effect="non-scaling-stroke"  transform=" translate(-974.5, -685)" d="M 911 716 C 928 699 994 650 1000 650 C 1006 650 1015 665 1038 713 C 1040 717 1011 720 974 720 C 937 720 909 718 911 716 z" stroke-linecap="round" />
</g>
<g transform="matrix(0.44 0 0 -0.42 730.63 528.16)"  >
<path style="stroke: none; stroke-width: 1; stroke-dasharray: none; stroke-linecap: butt; stroke-dashoffset: 0; stroke-linejoin: miter; stroke-miterlimit: 4; fill: rgb(20,94,252); fill-rule: nonzero; opacity: 1;" vector-effect="non-scaling-stroke"  transform=" translate(-1544.1, -620.67)" d="M 1379 622 L 1322 525 L 1543 522 C 1664 521 1764 521 1766 523 C 1768 525 1754 569 1736 621 L 1702 715 L 1569 717 L 1435 720 L 1379 622 z" stroke-linecap="round" />
</g>
<g transform="matrix(0.44 0 0 -0.42 413.44 543.15)"  >
<path style="stroke: none; stroke-width: 1; stroke-dasharray: none; stroke-linecap: butt; stroke-dashoffset: 0; stroke-linejoin: miter; stroke-miterlimit: 4; fill: rgb(20,94,252); fill-rule: nonzero; opacity: 1;" vector-effect="non-scaling-stroke"  transform=" translate(-830, -585.4)" d="M 773 643 C 770 633 759 603 748 577 C 738 551 730 527 730 525 C 730 522 775 520 830 520 C 885 520 930 524 930 529 C 930 535 896 566 855 600 C 790 653 779 659 773 643 z" stroke-linecap="round" />
</g>
<g transform="matrix(0.44 0 0 -0.42 550.87 553.12)"  >
<path style="stroke: none; stroke-width: 1; stroke-dasharray: none; stroke-linecap: butt; stroke-dashoffset: 0; stroke-linejoin: miter; stroke-miterlimit: 4; fill: rgb(20,94,252); fill-rule: nonzero; opacity: 1;" vector-effect="non-scaling-stroke"  transform=" translate(-1139.39, -561.94)" d="M 1112 586 C 1102 564 1104 559 1129 540 C 1174 509 1184 515 1159 558 C 1127 612 1125 613 1112 586 z" stroke-linecap="round" />
</g>
<g transform="matrix(0.44 0 0 -0.42 725.25 596.44)"  >
<path style="stroke: none; stroke-width: 1; stroke-dasharray: none; stroke-linecap: butt; stroke-dashoffset: 0; stroke-linejoin: miter; stroke-miterlimit: 4; fill: rgb(20,94,252); fill-rule: nonzero; opacity: 1;" vector-effect="non-scaling-stroke"  transform=" translate(-1531.98, -460)" d="M 1282 468 C 1275 461 1270 452 1270 448 C 1270 444 1389 440 1534 440 C 1793 440 1798 440 1793 460 C 1788 479 1779 480 1541 480 C 1362 480 1291 477 1282 468 z" stroke-linecap="round" />
</g>
<g transform="matrix(0.44 0 0 -0.42 542.03 653.97)"  >
<path style="stroke: none; stroke-width: 1; stroke-dasharray: none; stroke-linecap: butt; stroke-dashoffset: 0; stroke-linejoin: miter; stroke-miterlimit: 4; fill: rgb(20,94,252); fill-rule: nonzero; opacity: 1;" vector-effect="non-scaling-stroke"  transform=" translate(-1119.5, -324.63)" d="M 963 328 L 893 205 L 1006 202 C 1069 201 1171 201 1233 202 L 1346 205 L 1197 325 C 1115 391 1044 446 1041 448 C 1037 449 1002 395 963 328 z" stroke-linecap="round" />
</g>
<g transform="matrix(0.44 0 0 -0.42 373.24 664.44)"  >
<path style="stroke: none; stroke-width: 1; stroke-dasharray: none; stroke-linecap: butt; stroke-dashoffset: 0; stroke-linejoin: miter; stroke-miterlimit: 4; fill: rgb(20,94,252); fill-rule: nonzero; opacity: 1;" vector-effect="non-scaling-stroke"  transform=" translate(-739.5, -300)" d="M 652 307 C 635 257 620 212 620 208 C 620 203 648 200 683 200 L 745 201 L 802 300 L 859 400 L 772 400 L 685 400 L 652 307 z" stroke-linecap="round" />
</g>
<g transform="matrix(0.44 0 0 -0.42 753.46 664.44)"  >
<path style="stroke: none; stroke-width: 1; stroke-dasharray: none; stroke-linecap: butt; stroke-dashoffset: 0; stroke-linejoin: miter; stroke-miterlimit: 4; fill: rgb(20,94,252); fill-rule: nonzero; opacity: 1;" vector-effect="non-scaling-stroke"  transform=" translate(-1595.49, -300)" d="M 1311 396 C 1313 394 1369 349 1434 296 L 1553 200 L 1717 200 C 1807 200 1880 203 1880 207 C 1880 210 1865 255 1848 307 L 1815 400 L 1561 400 C 1421 400 1309 398 1311 396 z" stroke-linecap="round" />
</g>
</svg>